# Blender v2.79 (sub 0) OBJ File: 'boulder.blend'
# www.blender.org
mtllib diamond.mtl
o Cube.003
v -0.008059 -0.000220 -0.991355
v -0.008059 -0.000220 1.008645
v -0.008059 -0.000220 -0.991355
v -0.008059 -0.000220 1.008645
v -0.008059 -0.000220 -0.991355
v -0.008059 -0.000220 1.008645
v -0.008059 -0.000220 -0.991355
v -0.008059 -0.000220 1.008645
v -0.987179 -0.000220 0.008645
v -0.008059 0.978899 0.008645
v 0.971061 -0.000220 0.008645
v -0.008059 -0.979340 0.008645
vt 0.979025 0.020757
vt 0.000099 0.000099
vt 0.000099 0.000099
vt 0.489562 0.500000
vt 0.000099 0.000099
vt 0.000099 0.979243
vt 0.000099 0.000099
vt 0.489562 0.500000
vt 0.979223 0.000099
vt 0.979223 0.000099
vt 0.979223 0.000099
vt 0.979223 0.000099
vt 0.979223 0.000297
vt 0.979223 0.000297
vt 0.979223 0.000297
vt 0.979223 0.000297
vt 0.979025 0.999901
vt 0.979025 0.999901
vt 0.979025 0.999901
vt 0.979025 0.999901
vn -0.5814 0.5814 0.5692
vn 0.5814 0.5814 0.5692
vn 0.5814 -0.5814 0.5692
vn -0.5814 -0.5814 0.5692
vn 0.0000 0.0000 1.0000
vn -0.5814 -0.5814 -0.5692
vn 0.5814 -0.5814 -0.5692
vn 0.5814 0.5814 -0.5692
vn -0.5814 0.5814 -0.5692
usemtl Material.003
s off
f 9/1/1 2/2/1 4/3/1 10/4/1
f 10/4/2 4/3/2 8/5/2 11/6/2
f 11/6/3 8/5/3 6/7/3 12/8/3
f 12/8/4 6/7/4 2/2/4 9/1/4
f 3/9/5 7/10/5 5/11/5 1/12/5
f 8/13/5 4/14/5 2/15/5 6/16/5
f 5/17/6 12/8/6 9/1/6 1/18/6
f 7/19/7 11/6/7 12/8/7 5/17/7
f 3/20/8 10/4/8 11/6/8 7/19/8
f 1/18/9 9/1/9 10/4/9 3/20/9
